<?xml version="1.0" encoding="utf-8"?>
<!-- Generator: Adobe Illustrator 16.0.0, SVG Export Plug-In . SVG Version: 6.00 Build 0)  -->
<!DOCTYPE svg PUBLIC "-//W3C//DTD SVG 1.1//EN" "http://www.w3.org/Graphics/SVG/1.1/DTD/svg11.dtd">
<svg version="1.1" id="Layer_1" xmlns="http://www.w3.org/2000/svg" xmlns:xlink="http://www.w3.org/1999/xlink" x="0px" y="0px"
	 width="584.61px" height="702.509px" viewBox="0 0 584.61 702.509" enable-background="new 0 0 584.61 702.509"
	 xml:space="preserve">
<g>
	<path fill="#920000" d="M293.912,644.797c-0.491-2.511-1.015-5.001-1.61-7.44c-0.586,2.439-1.105,4.93-1.594,7.44
		C273.637,696.688,126.698,690.645,0,551.372c0,0,114.318,157.501,292.302,150.947C470.3,708.873,584.61,551.372,584.61,551.372
		C457.929,690.645,310.981,696.688,293.912,644.797z M14.884,541.457c17.177-6.75,34.734-5.521,56.499,11.159
		c70.207,72.6,178.1,92.74,202.686,95.108c-12.843-3.492-174.444-36.17-129.005-156.89c1.115-2.104,150.238-380.039,150.238-380.039
		l143.053,373.687c60.805,126.564-105.687,157.857-125.451,163.242c24.264-2.331,129.62-21.942,199.857-92.201
		c23.457-19.394,42.011-21.184,60.128-14.066c-20.853-47.451-12.352-91.367-4.424-115.319l7.754-18.886
		c0,0-99.31,44.749-147.278-73.389L295.657,0L158.299,339.734C105.197,473.996,11.55,407.252,11.55,407.252l2.79,5.867
		C21.877,430.336,40.469,483.259,14.884,541.457z"/>
</g>
</svg>
